<svg xmlns="http://www.w3.org/2000/svg" xmlns:xlink="http://www.w3.org/1999/xlink" width="18.82mm" height="39.63mm" viewBox="0 0 53.34 112.34">
  <g id="var_BarcodeImg">
    <image width="312" height="104" transform="translate(0 94.56) scale(0.17)" xlink:href="../untitled%20folder/barcode.png"/>
  </g>
  <g id="var_BATCH">
    <text transform="translate(9.46 76.95) scale(0.9 1)" font-size="5" fill="#1d1d1b" font-family="ArialMT, Arial" letter-spacing="0.02em">id<tspan x="4.13" y="0" letter-spacing="0.02em">=</tspan><tspan x="7.14" y="0" letter-spacing="0.03em">&quot;</tspan><tspan x="9.07" y="0" letter-spacing="0.01em">v</tspan><tspan x="11.62" y="0" letter-spacing="0.02em">a</tspan><tspan x="14.49" y="0" letter-spacing="-0.01em">r</tspan><tspan x="16.13" y="0" letter-spacing="0.06em">_</tspan><tspan x="19.19" y="0" letter-spacing="0.02em">B</tspan><tspan x="22.64" y="0" letter-spacing="-0.05em">A</tspan><tspan x="25.74" y="0" letter-spacing="0em">T</tspan><tspan x="28.79" y="0" letter-spacing="0.03em">C</tspan><tspan x="32.53" y="0" letter-spacing="0.04em">H</tspan><tspan x="36.37" y="0" letter-spacing="0em">&quot;</tspan></text>
  </g>
  <g id="var_STYLE">
    <text transform="translate(9.77 66.85) scale(0.9 1)" font-size="5" fill="#1d1d1b" font-family="ArialMT, Arial" letter-spacing="0.02em">id<tspan x="4.13" y="0" letter-spacing="0.02em">=</tspan><tspan x="7.14" y="0" letter-spacing="0.03em">&quot;</tspan><tspan x="9.07" y="0" letter-spacing="0.01em">v</tspan><tspan x="11.62" y="0" letter-spacing="0.02em">a</tspan><tspan x="14.49" y="0" letter-spacing="-0.01em">r</tspan><tspan x="16.13" y="0" letter-spacing="0.04em">_</tspan><tspan x="19.13" y="0" letter-spacing="0.01em">S</tspan><tspan x="22.53" y="0" letter-spacing="0.06em">T</tspan><tspan x="25.88" y="0" letter-spacing="0.03em">Y</tspan><tspan x="29.39" y="0" letter-spacing="0.02em">LE</tspan><tspan x="35.68" y="0" letter-spacing="0em">&quot;</tspan></text>
  </g>
  <g id="var_COLOUR">
    <text transform="translate(7.31 56.77) scale(0.9 1)" font-size="5" fill="#1d1d1b" font-family="ArialMT, Arial" letter-spacing="0.02em">id<tspan x="4.13" y="0" letter-spacing="0.02em">=</tspan><tspan x="7.14" y="0" letter-spacing="0.03em">&quot;</tspan><tspan x="9.07" y="0" letter-spacing="0.01em">v</tspan><tspan x="11.62" y="0" letter-spacing="0.02em">a</tspan><tspan x="14.49" y="0" letter-spacing="-0.01em">r</tspan><tspan x="16.13" y="0" letter-spacing="0.02em">_C</tspan><tspan x="22.76" y="0" letter-spacing="0.03em">O</tspan><tspan x="26.81" y="0" letter-spacing="-0.01em">L</tspan><tspan x="29.56" y="0" letter-spacing="0.03em">O</tspan><tspan x="33.59" y="0" letter-spacing="0.03em">U</tspan><tspan x="37.35" y="0" letter-spacing="0.04em">R</tspan><tspan x="41.15" y="0" letter-spacing="0em">&quot;</tspan></text>
  </g>
  <g id="var_PRODUCT_NAME">
    <text transform="translate(5.43 46.67) scale(0.66 1)" font-size="5" fill="#1d1d1b" font-family="ArialMT, Arial"><tspan letter-spacing="0.02em">id</tspan><tspan x="4.13" y="0" letter-spacing="0.02em">=</tspan><tspan x="7.14" y="0" letter-spacing="0.03em">&quot;</tspan><tspan x="9.07" y="0" letter-spacing="0.01em">v</tspan><tspan x="11.62" y="0" letter-spacing="0.02em">a</tspan><tspan x="14.49" y="0" letter-spacing="-0.01em">r</tspan><tspan x="16.13" y="0" letter-spacing="0.05em">_</tspan><tspan x="19.18" y="0" letter-spacing="0.02em">PR</tspan><tspan x="26.28" y="0" letter-spacing="0.03em">O</tspan><tspan x="30.33" y="0" letter-spacing="0.03em">DU</tspan><tspan x="37.8" y="0" letter-spacing="0.01em">C</tspan><tspan x="41.49" y="0" letter-spacing="-0.03em">T</tspan><tspan x="44.39" y="0" letter-spacing="0.06em">_</tspan><tspan x="47.44" y="0" letter-spacing="0.03em">N</tspan><tspan x="51.22" y="0" letter-spacing="0.04em">A</tspan><tspan x="54.75" y="0" letter-spacing="0.03em">M</tspan><tspan x="59.08" y="0" letter-spacing="0.02em">E</tspan><tspan x="62.5" y="0">&quot;</tspan></text>
  </g>
  <g id="Logo">
    <g>
      <g>
        <path d="M27.72,24.15v.53a.6.6,0,0,1-.66.67H24.87v7.21a.59.59,0,0,1-.65.67h-.81a.59.59,0,0,1-.65-.67V25.35H20.59a.6.6,0,0,1-.65-.67v-.53a.6.6,0,0,1,.65-.67h6.47A.6.6,0,0,1,27.72,24.15Z" transform="translate(-15.26 -9.79)" fill="#3d4543"/>
        <path d="M30.82,25.35v2.2h3.06a.6.6,0,0,1,.65.67v.37a.61.61,0,0,1-.65.69H30.82v2.09h3.61a.59.59,0,0,1,.65.67v.52a.59.59,0,0,1-.65.67h-5.1a.6.6,0,0,1-.66-.67V24.15a.6.6,0,0,1,.66-.67h5.1a.6.6,0,0,1,.65.67v.53a.6.6,0,0,1-.65.67Z" transform="translate(-15.26 -9.79)" fill="#3d4543"/>
        <path d="M38.8,25.35v2.2h3.06a.6.6,0,0,1,.65.67v.37a.61.61,0,0,1-.65.69H38.8v2.09h3.62a.6.6,0,0,1,.65.67v.52a.6.6,0,0,1-.65.67H37.31a.6.6,0,0,1-.66-.67V24.15a.6.6,0,0,1,.66-.67h5.11a.6.6,0,0,1,.65.67v.53a.6.6,0,0,1-.65.67Z" transform="translate(-15.26 -9.79)" fill="#3d4543"/>
        <path d="M44.63,32.56V24.15a.6.6,0,0,1,.66-.67h.49a.91.91,0,0,1,.8.42l3.8,5.38V24.15a.61.61,0,0,1,.67-.67h.84a.6.6,0,0,1,.65.67v8.41a.59.59,0,0,1-.65.67H51.4a.86.86,0,0,1-.79-.42l-3.83-5.43v5.18a.59.59,0,0,1-.65.67h-.84A.6.6,0,0,1,44.63,32.56Z" transform="translate(-15.26 -9.79)" fill="#3d4543"/>
        <path d="M53.93,31.28c-.18-.42,0-.71.46-.82l.58-.14c.38-.1.59.07.8.43a1.91,1.91,0,0,0,1.71.87c.92,0,1.53-.42,1.53-1.06,0-.49-.37-.88-1.09-1.13L56.69,29c-1.12-.38-2.5-1.24-2.52-2.74,0-1.79,1.51-2.9,3.36-2.9a3.11,3.11,0,0,1,3,1.78.55.55,0,0,1-.39.85l-.54.16c-.38.11-.61-.05-.84-.38a1.32,1.32,0,0,0-1.23-.64c-.68,0-1.26.35-1.26,1,0,.35.15.72,1,1l1.23.46c1.86.64,2.55,1.65,2.57,2.87,0,1.91-1.58,2.93-3.6,2.93A3.55,3.55,0,0,1,53.93,31.28Z" transform="translate(-15.26 -9.79)" fill="#3d4543"/>
      </g>
      <g>
        <path d="M53.13,14.41a3.57,3.57,0,1,1,7.14,0,3.57,3.57,0,1,1-7.14,0Zm6,0a2.39,2.39,0,1,0-4.78,0,2.39,2.39,0,1,0,4.78,0Zm-13.26,0a3.54,3.54,0,0,1,3.56-3.67,3.27,3.27,0,0,1,3,1.83l-1,.58a2.16,2.16,0,0,0-2-1.22A2.38,2.38,0,0,0,47,14.41a2.38,2.38,0,0,0,2.38,2.46,2.27,2.27,0,0,0,2-1.21l1,.6a3.43,3.43,0,0,1-3,1.81A3.54,3.54,0,0,1,45.83,14.41Zm-1,0a3.53,3.53,0,0,1-3.43,3.66,2.89,2.89,0,0,1-2.55-1.38V20H37.64V10.92h1.18v1.2a2.89,2.89,0,0,1,2.55-1.38A3.53,3.53,0,0,1,44.8,14.41Zm-1.18,0a2.4,2.4,0,1,0-4.8,0,2.4,2.4,0,1,0,4.8,0ZM33,16.93a2.21,2.21,0,0,0,1.95-1l1,.58a3.4,3.4,0,0,1-3,1.58,3.5,3.5,0,0,1-3.63-3.66,3.47,3.47,0,1,1,6.92,0,3.27,3.27,0,0,1,0,.54H30.57A2.33,2.33,0,0,0,33,16.93Zm-2.45-3h4.52a2.17,2.17,0,0,0-2.18-2A2.26,2.26,0,0,0,30.57,13.9Zm-2.24.51a3.54,3.54,0,0,1-3.43,3.66,2.91,2.91,0,0,1-2.56-1.38V20H21.16V10.92h1.18v1.2a2.91,2.91,0,0,1,2.56-1.38A3.54,3.54,0,0,1,28.33,14.41Zm-1.18,0a2.41,2.41,0,1,0-4.81,0,2.41,2.41,0,1,0,4.81,0Z" transform="translate(-15.26 -9.79)" fill="#3d4543"/>
        <g>
          <path d="M61.48,11.71l.78.8.78-.8a.56.56,0,1,0-.77-.8h0a.56.56,0,0,0-.77.8Zm.38-.66a.26.26,0,0,1,.19.07l.2.22h0l.21-.22a.23.23,0,0,1,.18-.07.25.25,0,0,1,.25.26.26.26,0,0,1-.07.19l-.58.59-.58-.59a.26.26,0,0,1-.07-.19A.25.25,0,0,1,61.86,11.05Z" transform="translate(-15.26 -9.79)" fill="#3d4543"/>
          <path d="M62.26,9.79a1.64,1.64,0,0,0-1.18.51,1.74,1.74,0,0,0,0,2.42,1.67,1.67,0,0,0,1.18.5,1.65,1.65,0,0,0,1.18-.5,1.74,1.74,0,0,0,0-2.42A1.62,1.62,0,0,0,62.26,9.79Zm1,2.71a1.32,1.32,0,0,1-1,.41,1.34,1.34,0,0,1-1-.41,1.44,1.44,0,0,1-.4-1,1.47,1.47,0,0,1,.4-1,1.38,1.38,0,0,1,1-.41,1.36,1.36,0,0,1,1,.41,1.42,1.42,0,0,1,.4,1A1.4,1.4,0,0,1,63.23,12.5Z" transform="translate(-15.26 -9.79)" fill="#3d4543"/>
        </g>
      </g>
    </g>
  </g>
</svg>
